<svg width="1192" height="185" viewBox="0 0 1192 185" fill="none" xmlns="http://www.w3.org/2000/svg">
<g clip-path="url(#clip0)">
<path d="M445.363 80.8315C442.776 79.0037 440.897 77.1507 440.897 74.8647H426.514C426.514 78.9785 424.634 80.8315 422.316 80.8315H418.474V122.599H493.162V80.8315H445.094H445.363ZM440.896 92.7647H427.437V86.7979H442.375V91.5991L440.896 92.7647ZM466.177 115.994C457.656 115.994 450.722 109.159 450.722 100.758C450.722 92.3575 457.655 85.8745 466.177 85.8745C474.698 85.8745 481.63 92.3571 481.63 100.758C481.63 109.159 474.698 115.994 466.177 115.994ZM474.484 100.758C474.484 105.274 470.757 108.949 466.177 108.949C461.597 108.949 457.87 105.274 457.87 100.758C457.87 96.2421 461.597 92.5686 466.177 92.5686C470.758 92.5686 474.484 96.2426 474.484 100.758ZM532.002 75.1497L513.407 122.487L499.139 116.773V108.705L509.048 112.755L522.132 79.4484L473.104 60.7283L468.56 74.8651H460.379L468.744 50.998L532.002 75.1503L532.002 75.1497Z" fill="#333333"/>
<path d="M81.252 72.1728C93.5697 71.8904 105.131 81.8952 106.432 94.1611C107.989 104.941 101.638 116.137 91.685 120.512C85.6561 123.501 78.8477 122.582 72.3627 122.735H66.0273V143.004H55.9923C56.0138 127.365 55.9517 111.724 56.023 96.0837C56.3515 84.4345 65.9051 73.9989 77.4396 72.448C78.7007 72.261 79.9799 72.1695 81.252 72.1717V72.1728ZM81.252 112.712C88.4909 112.893 95.2799 107.253 96.3602 100.091C97.8029 92.8826 93.1981 85.1367 86.1588 82.9747C79.3596 80.5654 71.1795 83.7372 67.8594 90.1486C65.2829 94.529 66.1981 99.7078 66.0271 104.534V112.712C71.1022 112.712 76.177 112.712 81.2521 112.712L81.252 112.712Z" fill="#333333"/>
<path d="M111.286 71.9275H121.208V122.491H111.286V71.9275Z" fill="#333333"/>
<path d="M151.025 103.852H151.386L165.49 122.63H177.785L158.619 96.6295L175.615 72.0729H163.32L151.386 89.4068H151.024L139.09 72.0729H126.795L143.792 96.6295L124.625 122.63H136.921L151.025 103.852Z" fill="#333333"/>
<path d="M200.252 71.9274C210.302 71.7293 219.941 78.3037 223.659 87.5854C225.601 91.8963 225.574 96.672 225.512 101.3V122.491C216.556 122.46 207.598 122.552 198.645 122.442C188.35 121.941 178.936 114.444 175.988 104.608C173.287 96.0553 175.531 86.1244 181.891 79.7377C186.642 74.83 193.393 71.8621 200.252 71.9274H200.252ZM215.477 112.469C215.434 106.847 215.567 101.219 215.403 95.6011C214.809 88.0687 207.822 81.758 200.252 81.9519C193.055 81.7783 186.27 87.3542 185.144 94.4699C183.824 101.298 187.75 108.739 194.276 111.287C198.295 113.038 202.734 112.316 206.983 112.469C209.814 112.469 212.645 112.469 215.477 112.469Z" fill="#333333"/>
<path d="M255.714 72.1728C267.598 71.8802 278.704 81.2177 280.596 92.9064C282.744 103.984 276.477 115.951 266.147 120.512C256.052 125.27 243.072 122.204 236.13 113.486C231.828 108.425 229.974 101.696 230.34 95.1344V51.9032H240.375V72.1722C245.488 72.1729 250.602 72.1709 255.714 72.1732L255.714 72.1728ZM255.714 112.712C263.336 112.915 270.303 106.525 270.862 98.9528C271.818 91.4265 266.231 83.8575 258.772 82.4898C254.647 81.9259 250.457 82.3052 246.302 82.1942H240.376C240.44 87.9066 240.239 93.6295 240.491 99.3345C241.288 106.881 248.123 112.86 255.714 112.712Z" fill="#333333"/>
<path d="M310.101 71.9274C320.151 71.7293 329.789 78.304 333.509 87.5854C335.45 91.8963 335.423 96.672 335.361 101.3V122.491C326.406 122.46 317.448 122.552 308.494 122.442C298.199 121.941 288.785 114.444 285.838 104.608C283.136 96.0553 285.381 86.1244 291.74 79.7377C296.491 74.83 303.242 71.8621 310.101 71.9274H310.101ZM325.326 112.469C325.283 106.847 325.416 101.219 325.252 95.6011C324.658 88.0687 317.671 81.758 310.101 81.9519C302.904 81.7783 296.119 87.3542 294.992 94.4699C293.673 101.298 297.599 108.739 304.125 111.287C308.144 113.038 312.583 112.316 316.832 112.469C319.663 112.469 322.494 112.469 325.326 112.469Z" fill="#333333"/>
<path d="M390.591 72.0502C390.57 87.6523 390.632 103.257 390.56 118.857C390.196 131.136 379.629 142.172 367.293 142.814C364.949 142.938 362.601 142.862 360.255 142.883V132.862C364.537 132.841 369.118 133.275 372.911 130.853C377.648 128.199 380.659 122.847 380.552 117.435C371.657 124.598 357.867 124.226 349.216 116.833C342.913 111.752 339.469 103.578 339.956 95.5353V72.0511H349.991C350.037 80.9774 349.897 89.9098 350.065 98.8321C350.61 106.18 357.171 112.398 364.545 112.574C372.017 113.148 379.209 107.353 380.324 99.971C380.774 95.555 380.455 91.0942 380.551 86.6582V72.0509C383.897 72.0506 387.243 72.0504 390.589 72.0502H390.591Z" fill="#333333"/>
</g>
<path d="M666.51 60.89C662.49 62.51 659.37 65 657.15 68.36C654.99 71.66 653.91 75.71 653.91 80.51C653.91 82.73 654.12 84.29 654.54 85.19C654.96 86.03 655.17 86.51 655.17 86.63C651.93 86.63 649.5 85.97 647.88 84.65C646.32 83.27 645.54 81.02 645.54 77.9C645.54 74.06 647.1 70.34 650.22 66.74C653.4 63.08 657.45 60.14 662.37 57.92C667.29 55.64 672.21 54.5 677.13 54.5C677.97 54.5 679.17 54.56 680.73 54.68L666.42 122H653.46L666.51 60.89ZM733.47 122.54C729.81 122.54 727.11 121.58 725.37 119.66C723.69 117.68 722.85 115.25 722.85 112.37C722.85 111.11 723 109.7 723.3 108.14C723.6 106.52 723.9 104.96 724.2 103.46C724.56 101.96 724.8 101 724.92 100.58C725.4 98.48 725.85 96.41 726.27 94.37C726.69 92.33 726.9 90.68 726.9 89.42C726.9 86.36 725.82 84.83 723.66 84.83C722.1 84.83 720.72 85.61 719.52 87.17C718.32 88.67 717.36 90.65 716.64 93.11L710.52 122H697.56L704.13 90.95C704.31 90.23 704.4 89.48 704.4 88.7C704.4 86.06 703.5 84.74 701.7 84.74C700.02 84.74 698.55 85.52 697.29 87.08C696.09 88.58 695.13 90.59 694.41 93.11L688.29 122H675.33L684.87 77H697.83L696.84 81.68C699.9 78.26 703.56 76.55 707.82 76.55C713.1 76.55 716.19 79.13 717.09 84.29C720.39 79.19 724.56 76.64 729.6 76.64C732.66 76.64 735.09 77.48 736.89 79.16C738.69 80.84 739.59 83.39 739.59 86.81C739.59 88.55 739.38 90.5 738.96 92.66C738.54 94.76 737.94 97.34 737.16 100.4C736.68 102.26 736.23 104.09 735.81 105.89C735.45 107.63 735.27 109.01 735.27 110.03C735.27 111.23 735.54 112.16 736.08 112.82C736.62 113.48 737.55 113.81 738.87 113.81C740.67 113.81 742.11 113.18 743.19 111.92C744.27 110.6 745.35 108.59 746.43 105.89H750.21C747.99 112.49 745.41 116.93 742.47 119.21C739.59 121.43 736.59 122.54 733.47 122.54ZM757.226 122.54C753.806 122.54 750.956 121.37 748.676 119.03C746.396 116.69 745.256 113.03 745.256 108.05C745.256 103.61 746.126 98.96 747.866 94.1C749.666 89.18 752.306 85.04 755.786 81.68C759.326 78.26 763.526 76.55 768.386 76.55C770.846 76.55 772.676 76.97 773.876 77.81C775.076 78.65 775.676 79.76 775.676 81.14V81.77L776.666 77H789.626L783.146 107.6C782.906 108.5 782.786 109.46 782.786 110.48C782.786 113.06 784.016 114.35 786.476 114.35C788.156 114.35 789.596 113.57 790.796 112.01C792.056 110.45 793.046 108.41 793.766 105.89H797.546C795.326 112.37 792.566 116.78 789.266 119.12C786.026 121.4 782.756 122.54 779.456 122.54C776.936 122.54 774.896 121.85 773.336 120.47C771.836 119.03 770.936 116.96 770.636 114.26C768.896 116.72 766.946 118.73 764.786 120.29C762.686 121.79 760.166 122.54 757.226 122.54ZM763.076 113.81C764.576 113.81 766.046 113.12 767.486 111.74C768.986 110.3 770.006 108.35 770.546 105.89L774.866 85.55C774.866 84.77 774.566 84.02 773.966 83.3C773.366 82.52 772.436 82.13 771.176 82.13C768.776 82.13 766.616 83.54 764.696 86.36C762.776 89.12 761.276 92.48 760.196 96.44C759.116 100.34 758.576 103.79 758.576 106.79C758.576 109.79 758.996 111.71 759.836 112.55C760.736 113.39 761.816 113.81 763.076 113.81ZM809.729 144.5C806.849 144.5 804.449 143.75 802.529 142.25C800.609 140.75 799.649 138.59 799.649 135.77C799.649 132.35 801.029 129.59 803.789 127.49C806.549 125.45 810.059 123.74 814.319 122.36L815.399 117.59C812.339 120.89 808.739 122.54 804.599 122.54C801.179 122.54 798.329 121.37 796.049 119.03C793.769 116.69 792.629 113.03 792.629 108.05C792.629 103.61 793.499 98.96 795.239 94.1C797.039 89.18 799.679 85.04 803.159 81.68C806.699 78.26 810.899 76.55 815.759 76.55C818.219 76.55 820.049 76.97 821.249 77.81C822.449 78.65 823.049 79.76 823.049 81.14V81.68L824.039 77H836.999L828.089 118.76C830.969 117.8 833.279 116.36 835.019 114.44C836.759 112.52 838.229 109.67 839.429 105.89H843.209C841.589 111.23 839.399 115.16 836.639 117.68C833.879 120.14 830.759 121.82 827.279 122.72L825.929 129.2C824.729 135.02 822.659 139.01 819.719 141.17C816.779 143.39 813.449 144.5 809.729 144.5ZM810.449 113.81C811.829 113.81 813.239 113.18 814.679 111.92C816.119 110.66 817.109 108.95 817.649 106.79L822.239 85.46C822.239 84.74 821.939 84.02 821.339 83.3C820.739 82.52 819.809 82.13 818.549 82.13C816.149 82.13 813.989 83.54 812.069 86.36C810.149 89.12 808.649 92.48 807.569 96.44C806.489 100.34 805.949 103.79 805.949 106.79C805.949 109.79 806.369 111.71 807.209 112.55C808.109 113.39 809.189 113.81 810.449 113.81ZM807.659 137.48C808.679 137.48 809.669 136.79 810.629 135.41C811.589 134.03 812.339 132.05 812.879 129.47L813.419 126.86C807.539 129.02 804.599 131.57 804.599 134.51C804.599 135.29 804.869 135.98 805.409 136.58C805.949 137.18 806.699 137.48 807.659 137.48ZM852.104 122.54C847.724 122.54 844.304 121.4 841.844 119.12C839.384 116.78 838.154 113.15 838.154 108.23C838.154 104.09 838.964 99.53 840.584 94.55C842.204 89.57 844.844 85.28 848.504 81.68C852.164 78.02 856.814 76.19 862.454 76.19C869.054 76.19 872.354 79.07 872.354 84.83C872.354 88.19 871.394 91.28 869.474 94.1C867.554 96.92 865.004 99.2 861.824 100.94C858.644 102.62 855.254 103.58 851.654 103.82C851.534 105.14 851.474 106.04 851.474 106.52C851.474 111.5 853.334 113.99 857.054 113.99C858.734 113.99 860.534 113.54 862.454 112.64C864.374 111.74 866.114 110.6 867.674 109.22C866.054 118.1 860.864 122.54 852.104 122.54ZM852.284 99.5C854.564 99.44 856.694 98.69 858.674 97.25C860.714 95.81 862.334 93.98 863.534 91.76C864.794 89.48 865.424 87.11 865.424 84.65C865.424 82.19 864.674 80.96 863.174 80.96C861.074 80.96 858.974 82.88 856.874 86.72C854.834 90.5 853.304 94.76 852.284 99.5ZM912.675 140.63C908.295 140.63 904.755 139.49 902.055 137.21C899.415 134.99 898.095 132.05 898.095 128.39C898.095 126.11 898.635 124.01 899.715 122.09C900.795 120.17 902.265 118.67 904.125 117.59C905.985 116.45 908.025 115.88 910.245 115.88C912.525 115.88 914.355 116.45 915.735 117.59C917.175 118.73 917.895 120.23 917.895 122.09C917.895 123.53 917.565 124.67 916.905 125.51C916.365 124.79 915.615 124.22 914.655 123.8C913.755 123.38 912.795 123.17 911.775 123.17C909.975 123.17 908.505 123.77 907.365 124.97C906.225 126.17 905.655 127.73 905.655 129.65C905.655 131.57 906.195 133.13 907.275 134.33C908.415 135.53 909.825 136.13 911.505 136.13C913.605 136.13 915.405 135.2 916.905 133.34C918.405 131.48 919.545 128.72 920.325 125.06L924.825 105.17H924.465C922.845 107.45 920.865 109.19 918.525 110.39C916.245 111.59 913.725 112.19 910.965 112.19C907.485 112.19 904.425 111.26 901.785 109.4C899.145 107.54 897.105 104.9 895.665 101.48C894.285 98 893.595 93.98 893.595 89.42C893.595 82.82 895.035 76.82 897.915 71.42C900.795 65.96 904.755 61.67 909.795 58.55C914.835 55.43 920.385 53.87 926.445 53.87C931.545 53.87 935.565 54.98 938.505 57.2C941.505 59.42 943.005 62.45 943.005 66.29C943.005 68.87 942.375 70.94 941.115 72.5C939.855 74.06 938.205 74.84 936.165 74.84C935.025 74.84 933.945 74.6 932.925 74.12C931.965 73.64 931.155 72.95 930.495 72.05C931.575 71.33 932.475 70.19 933.195 68.63C933.975 67.01 934.365 65.39 934.365 63.77C934.365 61.97 933.825 60.59 932.745 59.63C931.725 58.61 930.255 58.1 928.335 58.1C924.855 58.1 921.495 59.66 918.255 62.78C915.015 65.84 912.405 69.86 910.425 74.84C908.445 79.82 907.455 85.04 907.455 90.5C907.455 95 908.175 98.45 909.615 100.85C911.055 103.19 913.125 104.36 915.825 104.36C919.065 104.36 921.915 102.65 924.375 99.23C926.895 95.81 928.905 90.83 930.405 84.29L941.025 84.38L934.455 114.62C932.535 123.56 929.805 130.13 926.265 134.33C922.785 138.53 918.255 140.63 912.675 140.63ZM954.716 122.54C951.296 122.54 948.446 121.37 946.166 119.03C943.886 116.69 942.746 113.03 942.746 108.05C942.746 103.61 943.616 98.96 945.356 94.1C947.156 89.18 949.796 85.04 953.276 81.68C956.816 78.26 961.016 76.55 965.876 76.55C968.336 76.55 970.166 76.97 971.366 77.81C972.566 78.65 973.166 79.76 973.166 81.14V81.77L974.156 77H987.116L980.636 107.6C980.396 108.5 980.276 109.46 980.276 110.48C980.276 113.06 981.506 114.35 983.966 114.35C985.646 114.35 987.086 113.57 988.286 112.01C989.546 110.45 990.536 108.41 991.256 105.89H995.036C992.816 112.37 990.056 116.78 986.756 119.12C983.516 121.4 980.246 122.54 976.946 122.54C974.426 122.54 972.386 121.85 970.826 120.47C969.326 119.03 968.426 116.96 968.126 114.26C966.386 116.72 964.436 118.73 962.276 120.29C960.176 121.79 957.656 122.54 954.716 122.54ZM960.566 113.81C962.066 113.81 963.536 113.12 964.976 111.74C966.476 110.3 967.496 108.35 968.036 105.89L972.356 85.55C972.356 84.77 972.056 84.02 971.456 83.3C970.856 82.52 969.926 82.13 968.666 82.13C966.266 82.13 964.106 83.54 962.186 86.36C960.266 89.12 958.766 92.48 957.686 96.44C956.606 100.34 956.066 103.79 956.066 106.79C956.066 109.79 956.486 111.71 957.326 112.55C958.226 113.39 959.306 113.81 960.566 113.81ZM1000.2 122.54C997.319 122.54 994.979 121.64 993.179 119.84C991.439 118.04 990.569 115.34 990.569 111.74C990.569 110.24 990.809 108.29 991.289 105.89L1000.92 60.8L1014.24 59L1003.89 107.6C1003.65 108.5 1003.53 109.46 1003.53 110.48C1003.53 111.68 1003.8 112.55 1004.34 113.09C1004.94 113.57 1005.9 113.81 1007.22 113.81C1008.96 113.81 1010.58 113.09 1012.08 111.65C1013.58 110.15 1014.66 108.23 1015.32 105.89H1019.1C1016.88 112.37 1014.03 116.78 1010.55 119.12C1007.07 121.4 1003.62 122.54 1000.2 122.54ZM1024.19 122.54C1021.31 122.54 1018.97 121.64 1017.17 119.84C1015.43 118.04 1014.56 115.34 1014.56 111.74C1014.56 110.24 1014.8 108.29 1015.28 105.89L1024.91 60.8L1038.23 59L1027.88 107.6C1027.64 108.5 1027.52 109.46 1027.52 110.48C1027.52 111.68 1027.79 112.55 1028.33 113.09C1028.93 113.57 1029.89 113.81 1031.21 113.81C1032.95 113.81 1034.57 113.09 1036.07 111.65C1037.57 110.15 1038.65 108.23 1039.31 105.89H1043.09C1040.87 112.37 1038.02 116.78 1034.54 119.12C1031.06 121.4 1027.61 122.54 1024.19 122.54ZM1052.15 122.54C1047.71 122.54 1044.26 121.4 1041.8 119.12C1039.34 116.78 1038.11 113.15 1038.11 108.23C1038.11 104.09 1038.92 99.53 1040.54 94.55C1042.16 89.57 1044.8 85.28 1048.46 81.68C1052.12 78.02 1056.77 76.19 1062.41 76.19C1069.01 76.19 1072.31 79.07 1072.31 84.83C1072.31 88.19 1071.35 91.28 1069.43 94.1C1067.51 96.92 1064.96 99.2 1061.78 100.94C1058.6 102.62 1055.21 103.58 1051.61 103.82C1051.49 105.62 1051.43 106.82 1051.43 107.42C1051.43 110.36 1051.94 112.37 1052.96 113.45C1053.98 114.47 1055.63 114.98 1057.91 114.98C1061.15 114.98 1063.91 114.23 1066.19 112.73C1068.53 111.23 1071.08 108.95 1073.84 105.89H1076.9C1070.24 116.99 1061.99 122.54 1052.15 122.54ZM1052.33 99.5C1054.55 99.38 1056.65 98.6 1058.63 97.16C1060.67 95.72 1062.29 93.89 1063.49 91.67C1064.75 89.45 1065.38 87.11 1065.38 84.65C1065.38 82.19 1064.63 80.96 1063.13 80.96C1060.97 80.96 1058.84 82.85 1056.74 86.63C1054.7 90.41 1053.23 94.7 1052.33 99.5ZM1079.94 77H1092.9L1091.73 82.58C1093.77 80.78 1095.6 79.4 1097.22 78.44C1098.9 77.48 1100.7 77 1102.62 77C1104.54 77 1106.04 77.66 1107.12 78.98C1108.26 80.3 1108.83 81.89 1108.83 83.75C1108.83 85.49 1108.26 87.02 1107.12 88.34C1105.98 89.66 1104.39 90.32 1102.35 90.32C1101.03 90.32 1100.13 90.02 1099.65 89.42C1099.23 88.76 1098.9 87.83 1098.66 86.63C1098.48 85.85 1098.3 85.28 1098.12 84.92C1097.94 84.56 1097.61 84.38 1097.13 84.38C1095.87 84.38 1094.79 84.65 1093.89 85.19C1093.05 85.67 1091.94 86.54 1090.56 87.8L1083.36 122H1070.4L1079.94 77ZM1121.7 144.5C1118.88 144.5 1116.39 143.57 1114.23 141.71C1112.13 139.91 1111.08 137.6 1111.08 134.78C1111.08 132.14 1111.74 129.98 1113.06 128.3C1114.38 126.62 1116.09 125.3 1118.19 124.34C1120.29 123.38 1123.11 122.36 1126.65 121.28L1127.55 117.32C1124.49 120.8 1120.83 122.54 1116.57 122.54C1113.69 122.54 1111.35 121.64 1109.55 119.84C1107.81 118.04 1106.94 115.34 1106.94 111.74C1106.94 110.24 1107.18 108.29 1107.66 105.89L1113.78 77H1126.74L1120.26 107.6C1120.08 108.32 1119.99 109.07 1119.99 109.85C1119.99 112.49 1120.89 113.81 1122.69 113.81C1124.37 113.81 1125.81 113.12 1127.01 111.74C1128.21 110.3 1129.17 108.35 1129.89 105.89L1136.01 77H1149.06L1138.08 129.2C1136.88 134.96 1134.75 138.95 1131.69 141.17C1128.69 143.39 1125.36 144.5 1121.7 144.5ZM1119.63 136.49C1120.71 136.49 1121.73 135.92 1122.69 134.78C1123.65 133.7 1124.4 131.93 1124.94 129.47L1126.02 124.16C1122.84 125.24 1120.38 126.5 1118.64 127.94C1116.9 129.38 1116.03 131.24 1116.03 133.52C1116.03 134.24 1116.39 134.9 1117.11 135.5C1117.83 136.16 1118.67 136.49 1119.63 136.49Z" fill="#333333"/>
<defs>
<clipPath id="clip0">
<rect width="476" height="92" fill="white" transform="translate(56 51)"/>
</clipPath>
</defs>
</svg>
